<?xml version="1.0" encoding="UTF-8" standalone="yes"?>
<svg xmlns="http://www.w3.org/2000/svg" xmlns:xlink="http://www.w3.org/1999/xlink" width="408.282pt" height="408.282pt" version="1.1" viewBox="-77.141 437.609 408.282 408.282">
  <!--
	Exported with Concepts: Smarter Sketching
	Version: 4301 on iOS 26.1
	https://concepts.app/
	-->
  <title>2C5D5E75-C93E-4E3F-89A6-785AA646E28E</title>
  <desc>Drawing exported from Concepts: Smarter Sketching</desc>
  <defs></defs>
  <g id="Pen" opacity="1.000">
    <path id="STROKE_83a415a2-416e-4717-b66c-fb42e2721d92" opacity="1.000" fill="none" stroke="#d6dcde" stroke-width="16.066" stroke-opacity="1.000" stroke-linecap="round" stroke-linejoin="round" d="M -62.727 450.145 L 318.606 452.023 L 316.728 833.355 L -64.605 831.477 Z"></path>
    <path id="STROKE_08bc24c9-3de1-4b8e-8656-fd08d760876b" opacity="1.000" fill="none" stroke="#6ac0c8" stroke-width="51.398" stroke-opacity="1.000" stroke-linecap="round" stroke-linejoin="round" d="M 65.361 513.365 Q 65.205 516.004 65.175 517.115 Q 65.145 518.227 65.013 532.505 Q 64.882 546.783 64.855 560.581 Q 64.828 574.379 64.754 581.559 Q 64.681 588.740 64.103 605.035 Q 63.525 621.330 63.353 624.615 Q 63.180 627.900 62.712 634.742 Q 62.243 641.583 61.692 647.867 Q 61.140 654.150 60.516 661.419 Q 59.892 668.687 59.406 675.344 Q 58.920 682.001 58.527 691.222 Q 58.135 700.444 58.055 709.260 Q 57.976 718.075 58.046 724.337 Q 58.115 730.598 58.373 736.692 Q 58.631 742.785 58.801 747.312 "></path>
    <path id="STROKE_dbbe164f-59cc-4329-8965-4f09892c4b04" opacity="1.000" fill="none" stroke="#6ac0c8" stroke-width="51.398" stroke-opacity="1.000" stroke-linecap="round" stroke-linejoin="round" d="M 68.655 610.456 L 69.783 610.010 Q 71.280 609.409 77.185 607.374 Q 83.090 605.340 91.738 603.005 Q 100.386 600.670 108.834 599.198 Q 117.282 597.725 121.253 597.320 Q 125.224 596.914 131.257 596.750 Q 137.291 596.586 143.522 596.907 Q 149.753 597.229 158.164 598.460 Q 166.575 599.692 172.826 601.494 Q 179.078 603.295 185.228 606.146 Q 191.379 608.997 195.457 611.774 Q 199.535 614.551 203.212 618.082 Q 206.888 621.613 209.605 625.277 Q 212.323 628.942 215.090 634.516 Q 217.857 640.091 220.113 650.517 Q 222.369 660.943 222.406 668.005 Q 222.442 675.066 222.027 678.953 Q 221.611 682.841 220.576 687.575 Q 219.541 692.310 217.960 696.795 Q 216.379 701.281 214.151 705.587 Q 211.923 709.893 205.622 717.510 Q 199.321 725.127 193.940 728.981 Q 188.558 732.836 184.965 734.680 Q 181.372 736.525 175.284 738.639 Q 169.197 740.753 164.494 741.865 Q 159.792 742.978 154.959 743.766 Q 150.126 744.554 144.502 744.911 Q 138.877 745.267 135.945 745.298 Q 133.014 745.329 128.240 745.296 Q 123.467 745.262 117.864 745.033 Q 112.260 744.804 107.782 744.565 Q 103.305 744.327 100.757 744.190 Q 98.209 744.053 94.246 743.646 Q 90.283 743.239 88.209 743.000 Q 86.135 742.761 84.013 742.597 Q 81.891 742.433 80.413 742.333 Q 78.936 742.233 77.409 742.053 Q 75.882 741.874 74.861 741.774 Q 73.176 741.746 72.355 741.732 Q 71.533 741.717 68.710 741.466 "></path>
  </g>
</svg>